<?xml version="1.0" encoding="utf-8"?>
<!-- Generator: Adobe Illustrator 18.0.0, SVG Export Plug-In . SVG Version: 6.00 Build 0)  -->
<!DOCTYPE svg PUBLIC "-//W3C//DTD SVG 1.1//EN" "http://www.w3.org/Graphics/SVG/1.1/DTD/svg11.dtd">
<svg version="1.1" id="Ebene_1" xmlns="http://www.w3.org/2000/svg" xmlns:xlink="http://www.w3.org/1999/xlink" x="0px" y="0px"
	 viewBox="0 0 125.3 100" enable-background="new 0 0 125.3 100" xml:space="preserve">
<path fill="#FFFFFF" d="M87.2,60.3l9-9l-9.7-9.7c-7.9-7.9-5.6-12.1-3.8-13.9c1.2-1.2,2.3-2,3.1-2.5c1.1,2.1,2.5,4.1,4.4,5.9
	c9.4,9.5,19.7,8.2,27.6,0.2c4.7-4.7,7-9.1,7.5-11.3l-7.8-4.3c-0.9,2-3.1,5.5-5.6,8c-4.3,4.4-8.3,4.4-11.1,2.1l16.2-16.1l-2-2
	c-9.5-9.6-18.3-10.1-26.3-2.1c-5.3,5.3-6,11.8-3.7,17.8l-5.9-7c-0.6,0.2-1.7,1.1-2.8,2.2c-3.1,3.2-3.8,8.1-3,11.4l-4-3.4l-7.9,7.9
	l10.9,10.9c-8.6-7.1-16.4-6.7-23.6,0.4c-7.3,7.3-6.8,16.1-0.8,23.5l-1-1c-6.5-6.5-12.7-7.8-18.9-1.6c-3.6,3.6-4.2,7-3.8,10.2
	L8.9,61.6L0,70.5L29.5,100h18L35.1,87.6c-4.4-4.3-5.7-7.3-3-9.9c2-2,4.2-2,7,0.8l15,15l9-9L51.9,73.3c8.9,7.3,18.5,5.5,25.8-1.9
	c3.8-3.8,6-7.3,7-9.7l-7.9-4.4c-1.2,2-2.9,4.6-4.8,6.5c-4.4,4.4-8.4,4.4-11.2,2.1l16-16L87.2,60.3z M55.1,61c-2.5-2.8-2.5-6.2,0-8.7
	c2.5-2.5,5.7-2.5,8.8,0L55.1,61z M95.3,20.9c-2.5-2.8-2.5-6.1,0-8.7c2.5-2.5,5.7-2.5,8.7,0L95.3,20.9z"/>
</svg>
