<?xml version="1.0" encoding="utf-8"?>
<!-- Generator: Adobe Illustrator 18.0.0, SVG Export Plug-In . SVG Version: 6.00 Build 0)  -->
<!DOCTYPE svg PUBLIC "-//W3C//DTD SVG 1.1//EN" "http://www.w3.org/Graphics/SVG/1.1/DTD/svg11.dtd">
<svg version="1.1" id="Ebene_1" xmlns="http://www.w3.org/2000/svg" xmlns:xlink="http://www.w3.org/1999/xlink" x="0px" y="0px"
	 viewBox="0 0 21.3 100" enable-background="new 0 0 21.3 100" xml:space="preserve">
<path fill="#FFFFFF" d="M16.4,20.5V6h-3.6v14.5H7.9V6H0V0h21.3v20.5H16.4z M0,46.6v-6h7.9V29.9H0v-6h21.3v6h-8.5v10.7h8.5v6H0z
	 M19.9,69.1c-0.9,1.8-2.7,2.7-5.2,2.7c-2.6,0-4.4-0.9-5.4-2.7c-0.9-1.8-1.4-4.1-1.4-6.9v-5.6H0v-6h21.3v11.6
	C21.3,65.1,20.8,67.4,19.9,69.1z M0,79.1v-5.3h5.6v5.3H0z M10.4,100L0,97.4v-4.3l10.4,2.4l10.8-2.4v4.3L10.4,100z M8.2,91.6V81.2
	h4.7v10.5H8.2z M16.9,56.6h-4.7v5c0,1.8,0.2,3,0.6,3.5c0.4,0.6,1,0.8,1.9,0.8c0.8,0,1.4-0.3,1.7-0.8c0.3-0.6,0.5-1.7,0.5-3.5V56.6z
	 M15.6,79.1v-5.3h5.6v5.3H15.6z"/>
</svg>
