<?xml version="1.0" encoding="utf-8"?>
<!-- Generator: Adobe Illustrator 18.0.0, SVG Export Plug-In . SVG Version: 6.00 Build 0)  -->
<!DOCTYPE svg PUBLIC "-//W3C//DTD SVG 1.1//EN" "http://www.w3.org/Graphics/SVG/1.1/DTD/svg11.dtd">
<svg version="1.1" id="Ebene_1" xmlns="http://www.w3.org/2000/svg" xmlns:xlink="http://www.w3.org/1999/xlink" x="0px" y="0px"
	 viewBox="0 15.2 200 69.3" enable-background="new 0 15.2 200 69.3" xml:space="preserve">
<path fill="#FFFFFF" d="M1.3,26.6V15.4h2.3v11.3c0,3.1,2,4.8,4.9,4.8c2.9,0,4.9-1.6,4.9-4.8V15.4h2.3v11.2c0,4.4-3,7.1-7.2,7.1
	C4.3,33.7,1.3,31.1,1.3,26.6"/>
<path fill="#FFFFFF" d="M30.5,23.5c2.4,0,3.6-1.1,3.6-3c0-1.9-1.2-3-3.6-3h-2.9v6H30.5z M29.6,25.6h-2v7.9h-2.3V15.4h5.4
	c3.5,0,5.8,2,5.8,5.1c0,2.6-1.6,4.4-4.3,4.9l6.3,8.1h-2.8L29.6,25.6z"/>
<path fill="#FFFFFF" d="M53,31.4c2.4,0,3.6-1.3,3.6-3.1c0-1.8-1.2-3.1-3.6-3.1h-4.3v6.2H53z M52.4,23.2c1.9,0,3.1-1.2,3.1-2.8
	c0-1.5-1.1-2.8-3.1-2.8h-3.7v5.7H52.4z M46.4,15.4h6c3.5,0,5.3,2.2,5.3,4.7c0,1.8-0.7,3-1.9,3.8c1.8,0.7,3.1,2.1,3.1,4.5
	c0,3.3-2.5,5.1-6.3,5.1h-6.3V15.4z"/>
<path fill="#FFFFFF" d="M70.3,26.6H78v-9h-3.4L70.3,26.6z M73.3,15.4h7v18.1H78v-4.7h-8.7L67,33.5h-2.5L73.3,15.4z"/>
<polygon fill="#FFFFFF" points="90.1,15.2 90.1,33.5 92.4,33.5 92.4,20.3 103,29.9 103,33.5 105.3,33.5 105.3,15.4 103,15.4 
	103,26.9 "/>
<path fill="#FFFFFF" d="M-0.2,50c0-5.3,4.1-9.3,9.3-9.3c2.3,0,4.3,0.7,5.9,2.1l-1.4,1.8c-1.2-1-2.7-1.7-4.5-1.7c-4,0-6.9,3.1-6.9,7
	s2.9,7,6.9,7c1.8,0,3.3-0.7,4.5-1.7l1.4,1.8c-1.6,1.4-3.6,2.1-5.9,2.1C3.8,59.2-0.2,55.2-0.2,50"/>
<path fill="#FFFFFF" d="M38,50c0-4-2.9-7-6.9-7c-4,0-6.9,3.1-6.9,7s2.9,7,6.9,7C35.1,57,38,53.9,38,50 M21.9,50
	c0-5.3,4.1-9.3,9.3-9.3s9.3,4,9.3,9.3s-4.1,9.3-9.3,9.3S21.9,55.2,21.9,50"/>
<polygon fill="#FFFFFF" points="48.9,40.7 57.7,50.4 66.6,40.7 66.6,59 64.2,59 64.2,46.4 57.7,53.7 51.2,46.4 51.2,59 48.9,59 "/>
<path fill="#FFFFFF" d="M81.4,49.8c2.6,0,4-1.2,4-3.4c0-2.1-1.4-3.4-4-3.4h-2.7v6.8H81.4z M76.3,40.9h5.1c3.8,0,6.3,2.1,6.3,5.5
	c0,3.4-2.5,5.5-6.3,5.5h-2.8v7h-2.3V40.9z"/>
<polygon fill="#FFFFFF" points="95.7,40.9 98.1,40.9 98.1,56.8 105.7,56.8 105.7,59 95.7,59 "/>
<polygon fill="#FFFFFF" points="113.5,40.9 124,40.9 124,43.2 115.9,43.2 115.9,48.6 122.5,48.6 122.5,50.9 115.9,50.9 115.9,56.8 
	124,56.8 124,59 113.5,59 "/>
<polygon fill="#FFFFFF" points="138.2,50.5 133.6,59 131.1,59 136.8,48.4 131.4,40.9 134.1,40.9 140,49.1 144.3,40.9 146.8,40.9 
	141.4,51.1 147.1,59 144.3,59 "/>
<rect x="155.2" y="40.9" fill="#FFFFFF" width="2.3" height="18.1"/>
<polygon fill="#FFFFFF" points="170.7,43.2 165.5,43.2 165.5,40.9 178.1,40.9 178.1,43.2 173,43.2 173,59 170.7,59 "/>
<polygon fill="#FFFFFF" points="197.2,40.9 192.1,49.1 187,40.9 184.3,40.9 190.9,51.3 190.9,59 193.2,59 193.2,51.3 199.9,40.9 "/>
<polygon fill="#FFFFFF" points="1.3,66.4 1.3,84.5 11.2,84.5 11.2,82.3 3.6,82.3 3.6,66.4 "/>
<path fill="#FFFFFF" d="M27.1,68.7h3.4v9h-7.7L27.1,68.7z M25.8,66.4l-8.7,18.1h2.5l2.3-4.7h8.7v4.7h2.3V66.4H25.8z"/>
<path fill="#FFFFFF" d="M49.2,82.4c2.4,0,3.6-1.3,3.6-3.1c0-1.8-1.2-3.1-3.6-3.1h-4.3v6.2H49.2z M48.6,74.2c1.9,0,3.1-1.2,3.1-2.8
	c0-1.5-1.1-2.8-3.1-2.8h-3.7v5.7H48.6z M42.6,66.4h6c3.5,0,5.3,2.2,5.3,4.7c0,1.8-0.7,3-1.9,3.8c1.8,0.7,3.1,2.1,3.1,4.5
	c0,3.3-2.5,5.1-6.3,5.1h-6.3V66.4z"/>
</svg>
